<svg width="221" height="69" viewBox="0 0 221 69" fill="none" xmlns="http://www.w3.org/2000/svg">
<rect width="221" height="69" rx="20" fill="#05C5D7"/>
<path d="M18.32 28.288C17.936 27.584 17.408 27.048 16.736 26.68C16.064 26.312 15.28 26.128 14.384 26.128C13.392 26.128 12.512 26.352 11.744 26.8C10.976 27.248 10.376 27.888 9.944 28.72C9.512 29.552 9.296 30.512 9.296 31.6C9.296 32.72 9.512 33.696 9.944 34.528C10.392 35.36 11.008 36 11.792 36.448C12.576 36.896 13.488 37.12 14.528 37.12C15.808 37.12 16.856 36.784 17.672 36.112C18.488 35.424 19.024 34.472 19.28 33.256H13.52V30.688H22.592V33.616C22.368 34.784 21.888 35.864 21.152 36.856C20.416 37.848 19.464 38.648 18.296 39.256C17.144 39.848 15.848 40.144 14.408 40.144C12.792 40.144 11.328 39.784 10.016 39.064C8.72 38.328 7.696 37.312 6.944 36.016C6.208 34.72 5.84 33.248 5.84 31.6C5.84 29.952 6.208 28.48 6.944 27.184C7.696 25.872 8.72 24.856 10.016 24.136C11.328 23.4 12.784 23.032 14.384 23.032C16.272 23.032 17.912 23.496 19.304 24.424C20.696 25.336 21.656 26.624 22.184 28.288H18.32ZM38.6379 33.064C38.6379 33.544 38.6059 33.976 38.5419 34.36H28.8219C28.9019 35.32 29.2379 36.072 29.8299 36.616C30.4219 37.16 31.1499 37.432 32.0139 37.432C33.2619 37.432 34.1499 36.896 34.6779 35.824H38.3019C37.9179 37.104 37.1819 38.16 36.0939 38.992C35.0059 39.808 33.6699 40.216 32.0859 40.216C30.8059 40.216 29.6539 39.936 28.6299 39.376C27.6219 38.8 26.8299 37.992 26.2539 36.952C25.6939 35.912 25.4139 34.712 25.4139 33.352C25.4139 31.976 25.6939 30.768 26.2539 29.728C26.8139 28.688 27.5979 27.888 28.6059 27.328C29.6139 26.768 30.7739 26.488 32.0859 26.488C33.3499 26.488 34.4779 26.76 35.4699 27.304C36.4779 27.848 37.2539 28.624 37.7979 29.632C38.3579 30.624 38.6379 31.768 38.6379 33.064ZM35.1579 32.104C35.1419 31.24 34.8299 30.552 34.2219 30.04C33.6139 29.512 32.8699 29.248 31.9899 29.248C31.1579 29.248 30.4539 29.504 29.8779 30.016C29.3179 30.512 28.9739 31.208 28.8459 32.104H35.1579ZM46.2024 29.464V35.896C46.2024 36.344 46.3064 36.672 46.5144 36.88C46.7384 37.072 47.1064 37.168 47.6184 37.168H49.1784V40H47.0664C44.2344 40 42.8184 38.624 42.8184 35.872V29.464H41.2344V26.704H42.8184V23.416H46.2024V26.704H49.1784V29.464H46.2024ZM63.6258 29.464V35.896C63.6258 36.344 63.7298 36.672 63.9378 36.88C64.1618 37.072 64.5298 37.168 65.0418 37.168H66.6018V40H64.4898C61.6578 40 60.2418 38.624 60.2418 35.872V29.464H58.6578V26.704H60.2418V23.416H63.6258V26.704H66.6018V29.464H63.6258ZM76.1225 40.216C74.8425 40.216 73.6905 39.936 72.6665 39.376C71.6425 38.8 70.8345 37.992 70.2425 36.952C69.6665 35.912 69.3785 34.712 69.3785 33.352C69.3785 31.992 69.6745 30.792 70.2665 29.752C70.8745 28.712 71.6985 27.912 72.7385 27.352C73.7785 26.776 74.9385 26.488 76.2185 26.488C77.4985 26.488 78.6585 26.776 79.6985 27.352C80.7385 27.912 81.5545 28.712 82.1465 29.752C82.7545 30.792 83.0585 31.992 83.0585 33.352C83.0585 34.712 82.7465 35.912 82.1225 36.952C81.5145 37.992 80.6825 38.8 79.6265 39.376C78.5865 39.936 77.4185 40.216 76.1225 40.216ZM76.1225 37.288C76.7305 37.288 77.2985 37.144 77.8265 36.856C78.3705 36.552 78.8025 36.104 79.1225 35.512C79.4425 34.92 79.6025 34.2 79.6025 33.352C79.6025 32.088 79.2665 31.12 78.5945 30.448C77.9385 29.76 77.1305 29.416 76.1705 29.416C75.2105 29.416 74.4025 29.76 73.7465 30.448C73.1065 31.12 72.7865 32.088 72.7865 33.352C72.7865 34.616 73.0985 35.592 73.7225 36.28C74.3625 36.952 75.1625 37.288 76.1225 37.288ZM103.098 40L97.0019 32.536V40H93.6419V23.248H97.0019V30.76L103.098 23.248H107.154L100.242 31.552L107.346 40H103.098ZM118.124 26.512C119.708 26.512 120.988 27.016 121.964 28.024C122.94 29.016 123.428 30.408 123.428 32.2V40H120.068V32.656C120.068 31.6 119.804 30.792 119.276 30.232C118.748 29.656 118.028 29.368 117.116 29.368C116.188 29.368 115.452 29.656 114.908 30.232C114.38 30.792 114.116 31.6 114.116 32.656V40H110.756V26.704H114.116V28.36C114.564 27.784 115.132 27.336 115.82 27.016C116.524 26.68 117.292 26.512 118.124 26.512ZM133.727 40.216C132.447 40.216 131.295 39.936 130.271 39.376C129.247 38.8 128.439 37.992 127.847 36.952C127.271 35.912 126.983 34.712 126.983 33.352C126.983 31.992 127.279 30.792 127.871 29.752C128.479 28.712 129.303 27.912 130.343 27.352C131.383 26.776 132.543 26.488 133.823 26.488C135.103 26.488 136.263 26.776 137.303 27.352C138.343 27.912 139.159 28.712 139.751 29.752C140.359 30.792 140.663 31.992 140.663 33.352C140.663 34.712 140.351 35.912 139.727 36.952C139.119 37.992 138.287 38.8 137.231 39.376C136.191 39.936 135.023 40.216 133.727 40.216ZM133.727 37.288C134.335 37.288 134.903 37.144 135.431 36.856C135.975 36.552 136.407 36.104 136.727 35.512C137.047 34.92 137.207 34.2 137.207 33.352C137.207 32.088 136.871 31.12 136.199 30.448C135.543 29.76 134.735 29.416 133.775 29.416C132.815 29.416 132.007 29.76 131.351 30.448C130.711 31.12 130.391 32.088 130.391 33.352C130.391 34.616 130.703 35.592 131.327 36.28C131.967 36.952 132.767 37.288 133.727 37.288ZM162.76 26.704L158.872 40H155.248L152.824 30.712L150.4 40H146.752L142.84 26.704H146.248L148.6 36.832L151.144 26.704H154.696L157.192 36.808L159.544 26.704H162.76ZM190.961 23.248V40H187.601V29.104L183.113 40H180.569L176.057 29.104V40H172.697V23.248H176.513L181.841 35.704L187.169 23.248H190.961ZM207.843 33.064C207.843 33.544 207.811 33.976 207.747 34.36H198.027C198.107 35.32 198.443 36.072 199.035 36.616C199.627 37.16 200.355 37.432 201.219 37.432C202.467 37.432 203.355 36.896 203.883 35.824H207.507C207.123 37.104 206.387 38.16 205.299 38.992C204.211 39.808 202.875 40.216 201.291 40.216C200.011 40.216 198.859 39.936 197.835 39.376C196.827 38.8 196.035 37.992 195.459 36.952C194.899 35.912 194.619 34.712 194.619 33.352C194.619 31.976 194.899 30.768 195.459 29.728C196.019 28.688 196.803 27.888 197.811 27.328C198.819 26.768 199.979 26.488 201.291 26.488C202.555 26.488 203.683 26.76 204.675 27.304C205.683 27.848 206.459 28.624 207.003 29.632C207.563 30.624 207.843 31.768 207.843 33.064ZM204.363 32.104C204.347 31.24 204.035 30.552 203.427 30.04C202.819 29.512 202.075 29.248 201.195 29.248C200.363 29.248 199.659 29.504 199.083 30.016C198.523 30.512 198.179 31.208 198.051 32.104H204.363Z" fill="white"/>
</svg>
